<svg width="50" height="50" fill="none" xmlns="http://www.w3.org/2000/svg"><path d="M24.8 50.57c13.498 0 24.44-11.278 24.44-25.19S38.298.19 24.8.19C11.302.19.36 11.468.36 25.38S11.302 50.57 24.8 50.57Z" fill="#D01740"/><path d="M32.23 44h-14.3a5.44 5.44 0 0 1-5.43-5.43V21a5.44 5.44 0 0 1 5.43-5.43h14.29A5.44 5.44 0 0 1 37.65 21v17.58A5.42 5.42 0 0 1 32.23 44Z" stroke="#fff" stroke-width="2.5" stroke-miterlimit="10"/><path d="M31.7 44.01H18.11v8.21H31.7v-8.21Z" stroke="#fff" stroke-width="2" stroke-miterlimit="10"/><path d="M37.93 24.36H11.87a3.471 3.471 0 0 0-2.454 5.924A3.47 3.47 0 0 0 11.87 31.3h14.71v4.15A2.56 2.56 0 0 0 29.14 38a2.55 2.55 0 0 0 2.56-2.56V31.3h6.24a3.471 3.471 0 0 0 2.454-5.924 3.472 3.472 0 0 0-2.454-1.016h-.01Z" stroke="#fff" stroke-width="3" stroke-miterlimit="10"/><path d="M38 29.81H12A1.85 1.85 0 0 1 10.16 28v-.27A1.85 1.85 0 0 1 12 25.84h26a1.85 1.85 0 0 1 1.85 1.85V28A1.84 1.84 0 0 1 38 29.81Z" fill="#D01740"/><path d="M14.71 16.09s9.46-12.12 20.65 0c0 0-10.22 9.91-20.65 0Z" fill="#D01740" stroke="#fff" stroke-width="2" stroke-miterlimit="10"/></svg>