<svg aria-hidden="true" style="position:absolute;width:0;height:0" xmlns="http://www.w3.org/2000/svg" overflow="hidden"><defs><symbol id="icon-moresign" viewBox="0 0 19 32" fill="none"><path stroke="#D41443" stroke-linejoin="round" stroke-linecap="round" stroke-width="6.4" d="M3.2 3.2 16 16 3.2 28.8"/></symbol><symbol id="icon-logo" viewBox="0 0 127 32"><path fill="#FFB8CA" style="fill:var(--color3, #FFB8CA)" d="M0 0h127.36v32H0V0z"/><path fill="#d81442" style="fill:var(--color4, #d81442)" d="M50.406 22.08c-.634.07-1.274.102-1.907.102-.64 0-1.05-.026-1.222-.083-.179-.058-.262-.154-.262-.288v-9.702c0-.23.301-.454.902-.678s1.28-.333 2.029-.333c.666 0 1.101.141 1.312.422.07.102.109.211.109.314v9.978c-.013.109-.326.198-.96.269zM60.41 22.061c-.416.096-.838.166-1.274.205a14.068 14.068 0 0 1-2.215.026c-.224-.019-.518-.07-.883-.154s-.698-.198-.998-.346c-.301-.147-.621-.358-.96-.64s-.621-.614-.851-.998c-.531-.896-.794-2.048-.794-3.462 0-.947.147-1.779.442-2.509s.653-1.286 1.075-1.683c.422-.397.902-.71 1.44-.954a6.314 6.314 0 0 1 2.637-.595c1.267 0 2.176.102 2.726.314.25.096.474.237.672.435s.294.486.294.858-.09.845-.275 1.421-.442.858-.787.858c-.102 0-.486-.083-1.152-.25s-1.12-.25-1.357-.25c-.365 0-.672.205-.928.608s-.384.979-.384 1.728.109 1.331.333 1.747.518.621.883.621c.262 0 .73-.109 1.408-.32s1.075-.32 1.19-.32c.32 0 .576.294.755.89s.275 1.069.275 1.434-.109.653-.333.864c-.205.218-.525.378-.941.474zM70.733 22.176h-6.611c-.512 0-.851-.038-1.03-.109s-.262-.186-.262-.346v-9.862c0-.269.122-.461.365-.576s.685-.173 1.318-.173h6.266c.218 0 .326.358.326 1.082s-.045 1.274-.141 1.651-.218.57-.371.57c-.678 0-1.811-.07-3.411-.205v1.043c1.536-.064 2.541-.096 3.008-.096.282 0 .422.326.422.979s-.051 1.152-.166 1.491c-.109.339-.256.506-.442.506l-2.822-.064v.998c1.811-.134 3.059-.205 3.744-.205.218 0 .326.365.326 1.094s-.045 1.28-.141 1.651c-.096.384-.224.57-.378.57zM80.147 22.061c-.416.096-.838.166-1.274.205a14.068 14.068 0 0 1-2.215.026 6.629 6.629 0 0 1-.883-.154c-.365-.083-.698-.198-.998-.346s-.621-.358-.96-.64a3.873 3.873 0 0 1-.851-.998c-.531-.896-.794-2.048-.794-3.462 0-.947.147-1.779.442-2.509s.653-1.286 1.075-1.683c.422-.397.902-.71 1.44-.954a6.314 6.314 0 0 1 2.637-.595c1.267 0 2.176.102 2.726.314.25.096.474.237.672.435s.294.486.294.858-.09.845-.275 1.421-.442.858-.787.858c-.102 0-.486-.083-1.152-.25s-1.12-.25-1.357-.25c-.365 0-.672.205-.928.608s-.384.979-.384 1.728.109 1.331.333 1.747.518.621.883.621c.262 0 .73-.109 1.414-.32s1.075-.32 1.19-.32c.32 0 .576.294.755.89s.275 1.069.275 1.434-.109.653-.333.864c-.211.218-.531.378-.947.474zM86.931 21.728c0 .134-.32.243-.954.326s-1.274.128-1.907.128-1.05-.038-1.229-.109c-.179-.07-.275-.186-.275-.346V11.698c0-.269.339-.461 1.024-.576.678-.115 1.542-.173 2.579-.173s1.715 0 2.016.006c.307.006.666.026 1.082.058s.749.083.992.154.512.166.813.282.525.262.691.442.326.397.486.646c.282.448.422 1.082.422 1.907s-.134 1.523-.416 2.086-.64.998-1.101 1.286c1.197 1.882 1.792 3.078 1.792 3.584s-1.024.762-3.072.762c-.595 0-1.005-.026-1.229-.077-.23-.051-.371-.166-.435-.346l-1.011-3.213-.262-.013v3.213zm0-5.6h.403c.602 0 .902-.467.902-1.402 0-.48-.083-.813-.243-1.011s-.346-.294-.55-.294h-.512v2.707zM101.632 22.176h-6.611c-.512 0-.851-.038-1.03-.109s-.262-.186-.262-.346v-9.862c0-.269.122-.461.365-.576s.685-.173 1.318-.173h6.266c.218 0 .326.358.326 1.082s-.045 1.274-.141 1.651-.218.57-.371.57c-.678 0-1.811-.07-3.411-.205v1.043c1.536-.064 2.541-.096 3.008-.096.282 0 .422.326.422.979s-.051 1.152-.166 1.491c-.109.339-.256.506-.442.506l-2.822-.064v.998c1.811-.134 3.059-.205 3.744-.205.218 0 .326.365.326 1.094s-.045 1.28-.141 1.651c-.096.384-.224.57-.378.57zM107.066 22.01c-.294.115-.832.173-1.6.173s-1.414-.07-1.926-.211-.774-.32-.774-.538c0-.25.461-1.843 1.389-4.781.922-2.938 1.453-4.627 1.587-5.075.051-.134.467-.25 1.254-.333.787-.09 1.626-.134 2.528-.134.896 0 1.395.154 1.491.467 1.965 6.528 2.944 9.843 2.944 9.946s-.064.211-.186.314c-.294.23-.87.346-1.728.346-1.843 0-2.778-.218-2.822-.653l-.109-1.011h-1.498l-.077.87c-.019.294-.179.506-.474.621zm1.721-4.461-.237-2.803h-.346l-.262 2.803h.845zM117.146 22.176h-1.133c-.493 0-.832-.038-1.005-.109-.179-.07-.262-.186-.262-.346v-9.83c0-.237.32-.429.96-.57s1.325-.211 2.048-.211 1.248.096 1.562.282c.314.186.493.384.544.595l1.062 4.115h.141l.998-3.93c.07-.282.416-.525 1.024-.742.608-.211 1.274-.32 2.003-.32s1.267.058 1.613.173.525.262.525.435v10.01c0 .134-.294.243-.89.326s-1.312.128-2.17.128c-.851 0-1.28-.154-1.28-.454 0-.819.09-2.285.262-4.384h-.141l-.813 4.07c-.032.154-.16.269-.384.346-.224.07-.557.109-1.005.109s-.717-.032-.819-.096c-.096-.064-.166-.179-.192-.358l-.845-4.07h-.141c.186 2.144.282 3.603.282 4.384 0 .269-.646.416-1.946.448z"/><path fill="#d01740" style="fill:var(--color5, #d01740)" d="M31.283 16.48c0 8.904-7.003 16.122-15.642 16.122S-.001 25.384-.001 16.48 7.002.358 15.641.358 31.283 7.576 31.283 16.48z"/><path fill="none" stroke="#fff" style="stroke:var(--color3, #fff)" stroke-miterlimit="10" stroke-width="1.6" d="M20.397 28.403h-9.152a3.474 3.474 0 0 1-3.475-3.475V13.696a3.474 3.474 0 0 1 3.475-3.475h9.146a3.474 3.474 0 0 1 3.475 3.475v11.238a3.471 3.471 0 0 1-3.469 3.469z"/><path fill="none" stroke="#fff" style="stroke:var(--color3, #fff)" stroke-miterlimit="10" stroke-width="1.28" d="M11.36 28.403h8.698v5.254H11.36v-5.254z"/><path fill="none" stroke="#fff" style="stroke:var(--color3, #fff)" stroke-miterlimit="10" stroke-width="1.92" d="M24.045 15.834H7.367c-1.229 0-2.221.992-2.221 2.221s.992 2.221 2.221 2.221h9.414v2.656c0 .902.736 1.638 1.638 1.638.902 0 1.638-.736 1.638-1.638v-2.656h3.994c1.229 0 2.221-.992 2.221-2.221s-.998-2.221-2.227-2.221z"/><path fill="#d01740" style="fill:var(--color5, #d01740)" d="M24.096 19.315H7.456a1.185 1.185 0 0 1-1.184-1.184v-.166c0-.653.531-1.184 1.184-1.184h16.64c.653 0 1.184.531 1.184 1.184v.166c0 .653-.531 1.184-1.184 1.184z"/><path fill="#d01740" style="fill:var(--color5, #d01740);stroke:var(--color3, #fff)" stroke="#fff" stroke-miterlimit="10" stroke-width="1.28" d="M9.184 10.541s6.054-7.757 13.216 0c0 0-6.541 6.323-13.216 0z"/></symbol><symbol id="more" viewBox="0 0 26 32"><path fill="none" stroke="var(--color1, #d41443)" stroke-linejoin="round" stroke-linecap="round" stroke-width="6.4" d="M3.542 3.2 20.367 16 3.542 28.8"/></symbol><symbol id="burger-open" viewBox="0 0 32 32"><path d="M6.4 11.734V9.6h19.2v2.134H6.4zm0 5.332h19.2v-2.133H6.4v2.133zm0 5.334h19.2v-2.134H6.4V22.4z"/></symbol><symbol id="burger-close" viewBox="0 0 32 32"><path d="M23.734 10.304 22.23 8.8l-5.963 5.962L10.305 8.8l-1.504 1.504 5.962 5.962-5.962 5.963 1.504 1.504 5.962-5.963 5.963 5.963 1.504-1.504-5.963-5.963 5.963-5.962z"/></symbol></defs></svg>