<svg id="Слой_1" data-name="Слой 1" xmlns="http://www.w3.org/2000/svg" viewBox="0 0 199 50"><defs><style>.cls-1,.cls-5{fill:#d01740;}.cls-2,.cls-3,.cls-4{fill:none;}.cls-2,.cls-3,.cls-4,.cls-5{stroke:#fff;stroke-miterlimit:10;}.cls-2{stroke-width:2.5px;}.cls-3,.cls-5{stroke-width:2px;}.cls-4{stroke-width:3px;}</style></defs><ellipse class="cls-1" cx="27.8" cy="25.38" rx="24.44" ry="25.19"/><path class="cls-2" d="M35.23,44H20.93a5.44,5.44,0,0,1-5.43-5.43h0V21a5.44,5.44,0,0,1,5.43-5.43H35.22A5.44,5.44,0,0,1,40.65,21h0V38.58A5.42,5.42,0,0,1,35.23,44Z"/><rect class="cls-3" x="21.11" y="44.01" width="13.59" height="8.21"/><path class="cls-4" d="M40.93,24.36H14.87a3.47,3.47,0,1,0,0,6.94H29.58v4.15A2.56,2.56,0,0,0,32.14,38h0a2.55,2.55,0,0,0,2.56-2.56h0V31.3h6.24a3.47,3.47,0,1,0,0-6.94Z"/><path class="cls-1" d="M41,29.81H15A1.85,1.85,0,0,1,13.16,28h0v-.27A1.85,1.85,0,0,1,15,25.84H41a1.85,1.85,0,0,1,1.85,1.85V28A1.84,1.84,0,0,1,41,29.81Z"/><path class="cls-5" d="M17.71,16.09s9.46-12.12,20.65,0C38.36,16.09,28.14,26,17.71,16.09Z"/></svg>