<svg width="50" height="50" viewBox="0 0 50 50" fill="none" xmlns="http://www.w3.org/2000/svg">
<g clip-path="url(#clip0)">
<path d="M24.8 50.57C38.2978 50.57 49.24 39.2921 49.24 25.38C49.24 11.4679 38.2978 0.190002 24.8 0.190002C11.3021 0.190002 0.359985 11.4679 0.359985 25.38C0.359985 39.2921 11.3021 50.57 24.8 50.57Z" fill="#D01740"/>
<path d="M32.23 44H17.93C16.4907 43.9974 15.1111 43.4244 14.0933 42.4067C13.0756 41.3889 12.5026 40.0093 12.5 38.57V38.57V21C12.5026 19.5607 13.0756 18.1811 14.0933 17.1633C15.1111 16.1456 16.4907 15.5727 17.93 15.57H32.22C33.6593 15.5727 35.0389 16.1456 36.0567 17.1633C37.0744 18.1811 37.6474 19.5607 37.65 21V38.58C37.65 39.2918 37.5098 39.9966 37.2374 40.6542C36.965 41.3117 36.5658 41.9092 36.0625 42.4125C35.5592 42.9158 34.9617 43.3151 34.3041 43.5874C33.6466 43.8598 32.9418 44 32.23 44V44Z" stroke="white" stroke-width="2.5" stroke-miterlimit="10"/>
<path d="M31.7 44.01H18.11V52.22H31.7V44.01Z" stroke="white" stroke-width="2" stroke-miterlimit="10"/>
<path d="M37.93 24.36H11.87C11.4143 24.36 10.9631 24.4498 10.5421 24.6241C10.1211 24.7985 9.73855 25.0541 9.41633 25.3763C9.09411 25.6986 8.83852 26.0811 8.66413 26.5021C8.48975 26.9231 8.39999 27.3743 8.39999 27.83C8.39999 28.2857 8.48975 28.7369 8.66413 29.1579C8.83852 29.5789 9.09411 29.9614 9.41633 30.2837C9.73855 30.6059 10.1211 30.8615 10.5421 31.0359C10.9631 31.2102 11.4143 31.3 11.87 31.3H26.58V35.45C26.5826 36.1272 26.8535 36.7758 27.3333 37.2537C27.8131 37.7317 28.4628 38 29.14 38C29.4765 38.0013 29.81 37.936 30.1212 37.8078C30.4324 37.6796 30.7152 37.4911 30.9531 37.2531C31.1911 37.0152 31.3796 36.7324 31.5078 36.4212C31.636 36.11 31.7013 35.7766 31.7 35.44V31.3H37.94C38.3957 31.3 38.8469 31.2102 39.2679 31.0359C39.6889 30.8615 40.0714 30.6059 40.3937 30.2837C40.7159 29.9614 40.9715 29.5789 41.1459 29.1579C41.3202 28.7369 41.41 28.2857 41.41 27.83C41.41 27.3743 41.3202 26.9231 41.1459 26.5021C40.9715 26.0811 40.7159 25.6986 40.3937 25.3763C40.0714 25.0541 39.6889 24.7985 39.2679 24.6241C38.8469 24.4498 38.3957 24.36 37.94 24.36H37.93Z" stroke="white" stroke-width="3" stroke-miterlimit="10"/>
<path d="M38 29.81H12C11.5179 29.8075 11.0559 29.6169 10.7122 29.2789C10.3686 28.9408 10.1704 28.482 10.16 28V27.73C10.1547 27.4845 10.1983 27.2405 10.2883 27.0121C10.3782 26.7836 10.5128 26.5754 10.684 26.3995C10.8553 26.2236 11.0598 26.0835 11.2858 25.9874C11.5117 25.8914 11.7545 25.8413 12 25.84H38C38.4907 25.84 38.9612 26.0349 39.3082 26.3818C39.6551 26.7288 39.85 27.1993 39.85 27.69V28C39.8421 28.4845 39.6434 28.9464 39.297 29.2852C38.9507 29.6241 38.4846 29.8127 38 29.81V29.81Z" fill="#D01740"/>
<path d="M14.71 16.09C14.71 16.09 24.17 3.97001 35.36 16.09C35.36 16.09 25.14 26 14.71 16.09Z" fill="#D01740" stroke="white" stroke-width="2" stroke-miterlimit="10"/>
</g>
<defs>
<clipPath id="clip0">
<rect width="199" height="50" fill="white" transform="translate(-3)"/>
</clipPath>
</defs>
</svg>
