<svg version="1.1" id="Слой_1" xmlns="http://www.w3.org/2000/svg" x="0" y="0" viewBox="0 0 50 50" xml:space="preserve"><style>.st0{fill:#fff}.st1{stroke-width:2}.st1,.st4,.st5{fill:none;stroke:#fda5bb;stroke-miterlimit:10}.st4{stroke-linecap:round;stroke-width:2.5}.st5{stroke-width:3}</style><path class="st0" d="M0 0h50v50H0z"/><path class="st1" d="M35.21 17.96c-.52 8.39-7.46 15.03-15.98 15.03S3.76 26.33 3.25 17.94H2.11l6.24 31 22.24.13 5.76-31.11h-1.14zM3.26 17.94l33.09.02"/><path d="M39.5 47.14h-2.78c-1.85 0-3.6-.97-4.51-2.58-.94-1.66-1.24-3.57-1.32-5.03-.1-1.85.67-3.68 2.21-4.72 2.69-1.83 5.13.53 6.13 1.75.25.31.72.31.97 0 1-1.22 3.44-3.57 6.13-1.75 1.53 1.04 2.3 2.88 2.21 4.72-.08 1.46-.39 3.37-1.32 5.03-.91 1.62-2.66 2.58-4.51 2.58H39.5" fill="#fff" stroke="#fda5bb" stroke-width="2" stroke-miterlimit="10"/><path class="st4" d="M39.75 36.59s-.9-7.63 2.61-8"/><path class="st5" d="M20.06 17.47c.73-2.67.71-4.88.44-6.55-.41-2.5-1.17-4.8-3.62-5.46-3.93-1.05-5.04 2.91-5.35 4.96-.08.54-.65.84-1.15.63-.02-.01-.04-.02-.06-.02-3.29-1.35-6.9.56-7.79 4-.2.76-.26 1.59-.07 2.43"/><path class="st4" d="M10.96 10.58S5.57 6.04 6.93 1.65"/><path class="st5" d="M31.46 18.22c1.72-1.34 2.42-2.11 3.01-3.3.89-1.78 1.45-3.61.14-5.21-2.11-2.56-4.68-.59-5.83.57-.3.3-.82.22-1.05-.15-.61-.98-1.9-2.49-4.05-2.56 0 0-2.46-.13-3.44 2.18"/><path class="st4" d="M28.33 10.23s-1.46-5.58 1.54-7.77"/><path class="st0" d="M42.12 15.53c3.22 0 3.22-5 0-5s-3.22 5 0 5zM31.83 18.96h1.24v.5h-1.24z"/></svg>