<svg version="1.1" id="Слой_1" xmlns="http://www.w3.org/2000/svg" x="0" y="0" viewBox="0 0 33 50" xml:space="preserve"><style>.st0{fill:#FFF5F6}.st1{fill:none;stroke:#fda5bb;stroke-width:2.5;stroke-miterlimit:10}</style><path class="st0" d="M0 0h33v50H0z"/><path class="st1" d="M30.57 21.95C30.11 29.33 24 35.18 16.5 35.18S2.88 29.32 2.43 21.93h-1l5.49 27.29 19.58.11 5.07-27.38h-1zM2.44 21.93l29.13.02"/><path d="M27.7 1.59c0 2.06-.6 3.98-1.62 5.64.47.28.94.63 1.38 1.05 1.75 1.66 2.1 3.52 1.16 4.41-.94.89-2.81.48-4.56-1.18-.37-.35-.67-.71-.94-1.08a12.03 12.03 0 01-3.98 1.91c.02.24.04.49.04.75 0 2.35-1.08 4.25-2.4 4.25s-2.4-1.9-2.4-4.25c0-.14.06-.44.06-.58-1.67-.21-3.07-.85-4.44-1.65-1.55 1.71-3.77 2.73-4.77 1.95-1.03-.81-.58-2.93.99-4.74.02-.03.05-.05.07-.08a10.72 10.72 0 01-2.13-6.4H27.7z" fill="#FFF5F6" stroke="#ffb5c9" stroke-width="3" stroke-miterlimit="10"/><path class="st0" d="M16.78 15.91h-.04c-.78 0-1.41-.63-1.41-1.41v-3.63c0-.78.63-1.41 1.41-1.41h.04c.78 0 1.41.63 1.41 1.41v3.63c0 .78-.63 1.41-1.41 1.41zM5.95 11.85l-.04-.03c-.63-.46-.76-1.35-.3-1.97l2.15-2.92c.46-.63 1.35-.76 1.97-.3l.04.03c.63.46.76 1.35.3 1.97l-2.15 2.92c-.46.63-1.35.76-1.97.3zM27.81 11.56l-.03.03c-.55.55-1.45.55-2 0l-2.9-2.89c-.55-.55-.55-1.45 0-2l.03-.03c.55-.55 1.45-.55 2 0l2.89 2.89c.56.56.56 1.45.01 2z"/></svg>