<svg version="1.1" id="Слой_1" xmlns="http://www.w3.org/2000/svg" x="0" y="0" viewBox="0 0 44 50" xml:space="preserve"><style>.st1{fill:none;stroke:#ffa0ba;stroke-width:3;stroke-miterlimit:10}</style><path fill="#fff" d="M0 0h44v50H0z"/><path class="st1" d="M18.87 35.19h6.51v13.28h-6.51z"/><path class="st1" d="M20.91 34.88C6.82 27.29 3.12 18.95 2.4 13.55c-.52-3.91 1.08-7.9 4.26-10.26 5.7-4.24 11.39.18 14.01 2.82a2.1 2.1 0 002.97 0c2.61-2.64 8.31-7.05 14.01-2.82 3.17 2.36 4.78 6.35 4.26 10.26-.72 5.4-4.42 13.73-18.51 21.33-.78.41-1.72.41-2.49 0z"/><path class="st1" d="M3.88 18.23s3.29 2.72 3.84-1.13c.17-1.17.75-2.28 1.68-3.01.9-.71 2.09-1.06 3.33.27.74.8 1.09 1.89 1.09 2.98v2.08c0 1.17.43 2.33 1.29 3.13.74.68 1.74 1.02 2.81-.26.65-.78.96-1.79.96-2.81v-2.42c0-1.46.79-2.86 2.13-3.46.81-.36 1.77-.47 2.75.14 1.06.65 1.63 1.88 1.63 3.13v2.24c0 1.35.62 2.68 1.78 3.36.75.44 1.66.58 2.59-.25.75-.67 1.11-1.68 1.11-2.69v-2.2c0-1.4.72-2.76 1.98-3.37 1.16-.56 3.03-.65 4.02 1.79 0 0 .63 5.08 3.91 2.13"/></svg>