<svg aria-hidden="true" style="position:absolute;width:0;height:0;overflow:hidden" xmlns="http://www.w3.org/2000/svg"><defs>

<symbol id="icon-slider-pinkdot" viewBox="0 0 256 32"><path fill="#c7133e" style="fill:var(--color1, #c7133e)" d="M144 16c0 8.837-7.163 16-16 16s-16-7.163-16-16 7.163-16 16-16 16 7.163 16 16zM32 16c0 8.837-7.163 16-16 16S0 24.837 0 16 7.163 0 16 0s16 7.163 16 16zM256 16c0 8.837-7.163 16-16 16s-16-7.163-16-16 7.163-16 16-16 16 7.163 16 16z"/></symbol>

<symbol id="icon-quotes" viewBox="0 0 43 32"><path fill="#e1e1e1" style="fill:var(--color2, #e1e1e1)" d="M32.014 0c1.929 0 3.75.52 5.464 1.561s3.107 2.537 4.179 4.488C42.686 8 43.2 10.298 43.2 12.943s-.643 5.225-1.929 7.74c-.429.911-1.2 2.081-2.314 3.512a63.368 63.368 0 0 1-3.214 3.707L31.693 32 28.8 27.187a22.03 22.03 0 0 0 5.336-4.683c1.543-1.821 2.314-3.491 2.314-5.008 0-.78-.171-1.409-.514-1.886a8.359 8.359 0 0 1-5.014 1.626c-1.329 0-2.593-.412-3.793-1.236a8.555 8.555 0 0 1-2.957-3.122c-.771-1.258-1.157-2.558-1.157-3.902 0-1.518.45-2.97 1.35-4.358a10.222 10.222 0 0 1 3.407-3.382C29.143.412 30.558 0 32.015 0zM8.936 0c1.929 0 3.75.52 5.464 1.561s3.107 2.537 4.179 4.488c1.029 1.951 1.543 4.249 1.543 6.894 0 1.864-.236 3.534-.707 5.008-.471 1.518-1.286 3.1-2.443 4.748-1.114 1.561-2.164 2.862-3.15 3.902-.986 1.084-2.7 2.884-5.143 5.398l-2.893-4.813a22.03 22.03 0 0 0 5.336-4.683c1.543-1.821 2.314-3.491 2.314-5.008 0-.78-.171-1.409-.514-1.886a8.359 8.359 0 0 1-5.014 1.626c-1.329 0-2.593-.412-3.793-1.236a8.555 8.555 0 0 1-2.957-3.122C.387 11.619.001 10.319.001 8.975c0-1.518.429-2.97 1.286-4.358S3.28 2.102 4.694 1.235C6.065.411 7.48-.001 8.937-.001z"/></symbol>

<symbol id="icon-slider-dot" viewBox="0 0 32 32"><path d="M30.511 16c0 8.157-6.612 14.769-14.769 14.769S.973 24.157.973 16 7.585 1.231 15.742 1.231 30.511 7.843 30.511 16z"/></symbol>

<symbol id="icon-slider-house" viewBox="0 0 32 32"><path d="M30.129 15.447c.553-.6.5-1.52-.119-2.054L16.374 1.623c-.619-.534-1.611-.523-2.217.025L.475 14.02a1.414 1.414 0 0 0-.066 2.051l.343.352c.569.584 1.489.654 2.053.155l1.023-.903v13.224c0 .811.667 1.468 1.488 1.468h5.333c.822 0 1.488-.657 1.488-1.468v-9.252h6.803v9.252c-.012.811.576 1.468 1.398 1.468h5.652c.822 0 1.488-.657 1.488-1.468V15.861l.631.546c.349.302 1.078.06 1.631-.541l.388-.42z"/></symbol>

<symbol id="icon-github" viewBox="0 0 32 32"><path fill="#fff" style="fill:var(--color3, #fff)" d="M16 0C7.212 0 0 7.212 0 16c0 7.499 5.262 14.312 12.25 16v-5.293c-.692.152-1.33.156-2.034-.052-.946-.279-1.714-.909-2.284-1.869-.364-.613-1.008-1.278-1.68-1.23l-.165-1.868c1.453-.124 2.711.886 3.457 2.14.332.558.713.884 1.203 1.029.473.14.982.072 1.574-.137.149-1.186.692-1.63 1.102-2.255v-.001c-4.167-.622-5.828-2.832-6.488-4.578-.874-2.317-.405-5.212 1.14-7.041.03-.036.084-.129.063-.194-.708-2.139.155-3.909.187-4.097.817.242.95-.243 3.551 1.337l.449.27c.188.112.129.048.317.034A13.544 13.544 0 0 1 16 7.723c1.136.015 2.273.178 3.404.484l.145.015c-.013-.002.04-.009.127-.062 3.248-1.968 3.132-1.324 4.003-1.608.032.188.883 1.987.182 4.099-.095.291 2.816 2.956 1.203 7.235-.659 1.746-2.32 3.957-6.487 4.578v.001c.534.814 1.176 1.247 1.173 2.927V32C26.738 30.312 32 23.499 32 16c0-8.788-7.212-16-16-16z"/></symbol>

<symbol id="icon-telegram" viewBox="0 0 32 32"><path fill="#fff" style="fill:var(--color3, #fff)" d="m12.613 19.671-.491 6.444c.702 0 1.006-.282 1.371-.62l3.293-2.937 6.822 4.663c1.251.651 2.133.308 2.47-1.074l4.478-19.585.001-.001c.397-1.726-.669-2.401-1.888-1.978L2.346 13.989c-1.796.651-1.769 1.585-.305 2.009l6.73 1.954 15.632-9.129c.736-.455 1.404-.203.854.252L12.612 19.672z"/></symbol>

<symbol id="icon-facebook" viewBox="0 0 16 32"><path fill="#fff" style="fill:var(--color3, #fff)" d="M14.143 15.972h-4.034v14.865H3.997V15.972H1.09v-5.224h2.907V7.367c0-2.418 1.142-6.203 6.166-6.203l4.527.019v5.071h-3.285c-.539 0-1.296.271-1.296 1.424v3.075h4.567l-.534 5.219z"/></symbol>

<symbol id="icon-moresign" viewBox="0 0 19 32"><path stroke-linejoin="round" stroke-linecap="round" stroke-width="6.4" d="M3.2 3.2 16 16 3.2 28.8"/></symbol>

<symbol id="icon-arrow-right" viewBox="0 0 32 32"><path d="m19.414 27.414 10-10a2 2 0 0 0 0-2.828l-10-10a2 2 0 1 0-2.828 2.828L23.172 14H4a2 2 0 1 0 0 4h19.172l-6.586 6.586c-.39.39-.586.902-.586 1.414s.195 1.024.586 1.414a2 2 0 0 0 2.828 0z"/></symbol>

<symbol id="icon-arrow-up" viewBox="0 0 32 32">
<path d="M27.414 12.586l-10-10c-0.781-0.781-2.047-0.781-2.828 0l-10 10c-0.781 0.781-0.781 2.047 0 2.828s2.047 0.781 2.828 0l6.586-6.586v19.172c0 1.105 0.895 2 2 2s2-0.895 2-2v-19.172l6.586 6.586c0.39 0.39 0.902 0.586 1.414 0.586s1.024-0.195 1.414-0.586c0.781-0.781 0.781-2.047 0-2.828z"></path>
</symbol>

<symbol id="icon-logo" viewBox="0 0 127 32"><path fill="#fff" style="fill:var(--color3, #fff)" d="M0 0h127.36v32H0V0z"/><path fill="#d81442" style="fill:var(--color4, #d81442)" d="M50.406 22.08c-.634.07-1.274.102-1.907.102-.64 0-1.05-.026-1.222-.083-.179-.058-.262-.154-.262-.288v-9.702c0-.23.301-.454.902-.678s1.28-.333 2.029-.333c.666 0 1.101.141 1.312.422.07.102.109.211.109.314v9.978c-.013.109-.326.198-.96.269zM60.41 22.061c-.416.096-.838.166-1.274.205a14.068 14.068 0 0 1-2.215.026c-.224-.019-.518-.07-.883-.154s-.698-.198-.998-.346c-.301-.147-.621-.358-.96-.64s-.621-.614-.851-.998c-.531-.896-.794-2.048-.794-3.462 0-.947.147-1.779.442-2.509s.653-1.286 1.075-1.683c.422-.397.902-.71 1.44-.954a6.314 6.314 0 0 1 2.637-.595c1.267 0 2.176.102 2.726.314.25.096.474.237.672.435s.294.486.294.858-.09.845-.275 1.421-.442.858-.787.858c-.102 0-.486-.083-1.152-.25s-1.12-.25-1.357-.25c-.365 0-.672.205-.928.608s-.384.979-.384 1.728.109 1.331.333 1.747.518.621.883.621c.262 0 .73-.109 1.408-.32s1.075-.32 1.19-.32c.32 0 .576.294.755.89s.275 1.069.275 1.434-.109.653-.333.864c-.205.218-.525.378-.941.474zM70.733 22.176h-6.611c-.512 0-.851-.038-1.03-.109s-.262-.186-.262-.346v-9.862c0-.269.122-.461.365-.576s.685-.173 1.318-.173h6.266c.218 0 .326.358.326 1.082s-.045 1.274-.141 1.651-.218.57-.371.57c-.678 0-1.811-.07-3.411-.205v1.043c1.536-.064 2.541-.096 3.008-.096.282 0 .422.326.422.979s-.051 1.152-.166 1.491c-.109.339-.256.506-.442.506l-2.822-.064v.998c1.811-.134 3.059-.205 3.744-.205.218 0 .326.365.326 1.094s-.045 1.28-.141 1.651c-.096.384-.224.57-.378.57zM80.147 22.061c-.416.096-.838.166-1.274.205a14.068 14.068 0 0 1-2.215.026 6.629 6.629 0 0 1-.883-.154c-.365-.083-.698-.198-.998-.346s-.621-.358-.96-.64a3.873 3.873 0 0 1-.851-.998c-.531-.896-.794-2.048-.794-3.462 0-.947.147-1.779.442-2.509s.653-1.286 1.075-1.683c.422-.397.902-.71 1.44-.954a6.314 6.314 0 0 1 2.637-.595c1.267 0 2.176.102 2.726.314.25.096.474.237.672.435s.294.486.294.858-.09.845-.275 1.421-.442.858-.787.858c-.102 0-.486-.083-1.152-.25s-1.12-.25-1.357-.25c-.365 0-.672.205-.928.608s-.384.979-.384 1.728.109 1.331.333 1.747.518.621.883.621c.262 0 .73-.109 1.414-.32s1.075-.32 1.19-.32c.32 0 .576.294.755.89s.275 1.069.275 1.434-.109.653-.333.864c-.211.218-.531.378-.947.474zM86.931 21.728c0 .134-.32.243-.954.326s-1.274.128-1.907.128-1.05-.038-1.229-.109c-.179-.07-.275-.186-.275-.346V11.698c0-.269.339-.461 1.024-.576.678-.115 1.542-.173 2.579-.173s1.715 0 2.016.006c.307.006.666.026 1.082.058s.749.083.992.154.512.166.813.282.525.262.691.442.326.397.486.646c.282.448.422 1.082.422 1.907s-.134 1.523-.416 2.086-.64.998-1.101 1.286c1.197 1.882 1.792 3.078 1.792 3.584s-1.024.762-3.072.762c-.595 0-1.005-.026-1.229-.077-.23-.051-.371-.166-.435-.346l-1.011-3.213-.262-.013v3.213zm0-5.6h.403c.602 0 .902-.467.902-1.402 0-.48-.083-.813-.243-1.011s-.346-.294-.55-.294h-.512v2.707zM101.632 22.176h-6.611c-.512 0-.851-.038-1.03-.109s-.262-.186-.262-.346v-9.862c0-.269.122-.461.365-.576s.685-.173 1.318-.173h6.266c.218 0 .326.358.326 1.082s-.045 1.274-.141 1.651-.218.57-.371.57c-.678 0-1.811-.07-3.411-.205v1.043c1.536-.064 2.541-.096 3.008-.096.282 0 .422.326.422.979s-.051 1.152-.166 1.491c-.109.339-.256.506-.442.506l-2.822-.064v.998c1.811-.134 3.059-.205 3.744-.205.218 0 .326.365.326 1.094s-.045 1.28-.141 1.651c-.096.384-.224.57-.378.57zM107.066 22.01c-.294.115-.832.173-1.6.173s-1.414-.07-1.926-.211-.774-.32-.774-.538c0-.25.461-1.843 1.389-4.781.922-2.938 1.453-4.627 1.587-5.075.051-.134.467-.25 1.254-.333.787-.09 1.626-.134 2.528-.134.896 0 1.395.154 1.491.467 1.965 6.528 2.944 9.843 2.944 9.946s-.064.211-.186.314c-.294.23-.87.346-1.728.346-1.843 0-2.778-.218-2.822-.653l-.109-1.011h-1.498l-.077.87c-.019.294-.179.506-.474.621zm1.721-4.461-.237-2.803h-.346l-.262 2.803h.845zM117.146 22.176h-1.133c-.493 0-.832-.038-1.005-.109-.179-.07-.262-.186-.262-.346v-9.83c0-.237.32-.429.96-.57s1.325-.211 2.048-.211 1.248.096 1.562.282c.314.186.493.384.544.595l1.062 4.115h.141l.998-3.93c.07-.282.416-.525 1.024-.742.608-.211 1.274-.32 2.003-.32s1.267.058 1.613.173.525.262.525.435v10.01c0 .134-.294.243-.89.326s-1.312.128-2.17.128c-.851 0-1.28-.154-1.28-.454 0-.819.09-2.285.262-4.384h-.141l-.813 4.07c-.032.154-.16.269-.384.346-.224.07-.557.109-1.005.109s-.717-.032-.819-.096c-.096-.064-.166-.179-.192-.358l-.845-4.07h-.141c.186 2.144.282 3.603.282 4.384 0 .269-.646.416-1.946.448z"/><path fill="#d01740" style="fill:var(--color5, #d01740)" d="M31.283 16.48c0 8.904-7.003 16.122-15.642 16.122S-.001 25.384-.001 16.48 7.002.358 15.641.358 31.283 7.576 31.283 16.48z"/><path fill="none" stroke="#fff" style="stroke:var(--color3, #fff)" stroke-miterlimit="10" stroke-width="1.6" d="M20.397 28.403h-9.152a3.474 3.474 0 0 1-3.475-3.475V13.696a3.474 3.474 0 0 1 3.475-3.475h9.146a3.474 3.474 0 0 1 3.475 3.475v11.238a3.471 3.471 0 0 1-3.469 3.469z"/><path fill="none" stroke="#fff" style="stroke:var(--color3, #fff)" stroke-miterlimit="10" stroke-width="1.28" d="M11.36 28.403h8.698v5.254H11.36v-5.254z"/><path fill="none" stroke="#fff" style="stroke:var(--color3, #fff)" stroke-miterlimit="10" stroke-width="1.92" d="M24.045 15.834H7.367c-1.229 0-2.221.992-2.221 2.221s.992 2.221 2.221 2.221h9.414v2.656c0 .902.736 1.638 1.638 1.638.902 0 1.638-.736 1.638-1.638v-2.656h3.994c1.229 0 2.221-.992 2.221-2.221s-.998-2.221-2.227-2.221z"/><path fill="#d01740" style="fill:var(--color5, #d01740)" d="M24.096 19.315H7.456a1.185 1.185 0 0 1-1.184-1.184v-.166c0-.653.531-1.184 1.184-1.184h16.64c.653 0 1.184.531 1.184 1.184v.166c0 .653-.531 1.184-1.184 1.184z"/><path fill="#d01740" style="fill:var(--color5, #d01740);stroke:var(--color3, #fff)" stroke="#fff" stroke-miterlimit="10" stroke-width="1.28" d="M9.184 10.541s6.054-7.757 13.216 0c0 0-6.541 6.323-13.216 0z"/></symbol>

<symbol id="icon-burger" viewBox="0 0 46 32"><path stroke-width="2.286" d="M0 2.286h45.714M0 16h45.714M0 29.714h45.714"/></symbol>

<symbol id="icon-close" viewBox="0 0 32 32"><path stroke-width="2" d="m2.519 2 26.963 28M2 29.481 30 2.518"/></symbol>
</defs></svg>